<svg width="176" height="84" viewBox="0 0 176 84" fill="none" xmlns="http://www.w3.org/2000/svg">
<path d="M1.368 18.2V13.298H10.526V41H5.054V18.2H1.368ZM15.7816 26.788C15.7816 22.4053 16.5669 18.9727 18.1376 16.49C19.7336 14.0073 22.3682 12.766 26.0416 12.766C29.7149 12.766 32.3369 14.0073 33.9076 16.49C35.5036 18.9727 36.3016 22.4053 36.3016 26.788C36.3016 31.196 35.5036 34.654 33.9076 37.162C32.3369 39.67 29.7149 40.924 26.0416 40.924C22.3682 40.924 19.7336 39.67 18.1376 37.162C16.5669 34.654 15.7816 31.196 15.7816 26.788ZM31.0576 26.788C31.0576 24.9133 30.9309 23.3427 30.6776 22.076C30.4496 20.784 29.9682 19.7327 29.2336 18.922C28.5242 18.1113 27.4602 17.706 26.0416 17.706C24.6229 17.706 23.5462 18.1113 22.8116 18.922C22.1022 19.7327 21.6209 20.784 21.3676 22.076C21.1396 23.3427 21.0256 24.9133 21.0256 26.788C21.0256 28.7133 21.1396 30.3347 21.3676 31.652C21.5956 32.944 22.0769 33.9953 22.8116 34.806C23.5462 35.5913 24.6229 35.984 26.0416 35.984C27.4602 35.984 28.5369 35.5913 29.2716 34.806C30.0062 33.9953 30.4876 32.944 30.7156 31.652C30.9436 30.3347 31.0576 28.7133 31.0576 26.788ZM40.348 26.788C40.348 22.4053 41.1333 18.9727 42.704 16.49C44.3 14.0073 46.9347 12.766 50.608 12.766C54.2813 12.766 56.9033 14.0073 58.474 16.49C60.07 18.9727 60.868 22.4053 60.868 26.788C60.868 31.196 60.07 34.654 58.474 37.162C56.9033 39.67 54.2813 40.924 50.608 40.924C46.9347 40.924 44.3 39.67 42.704 37.162C41.1333 34.654 40.348 31.196 40.348 26.788ZM55.624 26.788C55.624 24.9133 55.4973 23.3427 55.244 22.076C55.016 20.784 54.5347 19.7327 53.8 18.922C53.0907 18.1113 52.0267 17.706 50.608 17.706C49.1893 17.706 48.1127 18.1113 47.378 18.922C46.6687 19.7327 46.1873 20.784 45.934 22.076C45.706 23.3427 45.592 24.9133 45.592 26.788C45.592 28.7133 45.706 30.3347 45.934 31.652C46.162 32.944 46.6433 33.9953 47.378 34.806C48.1127 35.5913 49.1893 35.984 50.608 35.984C52.0267 35.984 53.1033 35.5913 53.838 34.806C54.5727 33.9953 55.054 32.944 55.282 31.652C55.51 30.3347 55.624 28.7133 55.624 26.788ZM67.8784 41.266C66.9157 41.266 66.1177 40.9747 65.4844 40.392C64.8764 39.784 64.5724 39.0367 64.5724 38.15C64.5724 37.2633 64.8764 36.5287 65.4844 35.946C66.1177 35.338 66.9157 35.034 67.8784 35.034C68.8157 35.034 69.5884 35.338 70.1964 35.946C70.8044 36.5287 71.1084 37.2633 71.1084 38.15C71.1084 39.0367 70.8044 39.784 70.1964 40.392C69.5884 40.9747 68.8157 41.266 67.8784 41.266ZM74.7855 26.788C74.7855 22.4053 75.5708 18.9727 77.1415 16.49C78.7375 14.0073 81.3722 12.766 85.0455 12.766C88.7188 12.766 91.3408 14.0073 92.9115 16.49C94.5075 18.9727 95.3055 22.4053 95.3055 26.788C95.3055 31.196 94.5075 34.654 92.9115 37.162C91.3408 39.67 88.7188 40.924 85.0455 40.924C81.3722 40.924 78.7375 39.67 77.1415 37.162C75.5708 34.654 74.7855 31.196 74.7855 26.788ZM90.0615 26.788C90.0615 24.9133 89.9348 23.3427 89.6815 22.076C89.4535 20.784 88.9722 19.7327 88.2375 18.922C87.5282 18.1113 86.4642 17.706 85.0455 17.706C83.6268 17.706 82.5502 18.1113 81.8155 18.922C81.1062 19.7327 80.6248 20.784 80.3715 22.076C80.1435 23.3427 80.0295 24.9133 80.0295 26.788C80.0295 28.7133 80.1435 30.3347 80.3715 31.652C80.5995 32.944 81.0808 33.9953 81.8155 34.806C82.5502 35.5913 83.6268 35.984 85.0455 35.984C86.4642 35.984 87.5408 35.5913 88.2755 34.806C89.0102 33.9953 89.4915 32.944 89.7195 31.652C89.9475 30.3347 90.0615 28.7133 90.0615 26.788ZM99.3519 26.788C99.3519 22.4053 100.137 18.9727 101.708 16.49C103.304 14.0073 105.939 12.766 109.612 12.766C113.285 12.766 115.907 14.0073 117.478 16.49C119.074 18.9727 119.872 22.4053 119.872 26.788C119.872 31.196 119.074 34.654 117.478 37.162C115.907 39.67 113.285 40.924 109.612 40.924C105.939 40.924 103.304 39.67 101.708 37.162C100.137 34.654 99.3519 31.196 99.3519 26.788ZM114.628 26.788C114.628 24.9133 114.501 23.3427 114.248 22.076C114.02 20.784 113.539 19.7327 112.804 18.922C112.095 18.1113 111.031 17.706 109.612 17.706C108.193 17.706 107.117 18.1113 106.382 18.922C105.673 19.7327 105.191 20.784 104.938 22.076C104.71 23.3427 104.596 24.9133 104.596 26.788C104.596 28.7133 104.71 30.3347 104.938 31.652C105.166 32.944 105.647 33.9953 106.382 34.806C107.117 35.5913 108.193 35.984 109.612 35.984C111.031 35.984 112.107 35.5913 112.842 34.806C113.577 33.9953 114.058 32.944 114.286 31.652C114.514 30.3347 114.628 28.7133 114.628 26.788ZM123.918 26.788C123.918 22.4053 124.704 18.9727 126.274 16.49C127.87 14.0073 130.505 12.766 134.178 12.766C137.852 12.766 140.474 14.0073 142.044 16.49C143.64 18.9727 144.438 22.4053 144.438 26.788C144.438 31.196 143.64 34.654 142.044 37.162C140.474 39.67 137.852 40.924 134.178 40.924C130.505 40.924 127.87 39.67 126.274 37.162C124.704 34.654 123.918 31.196 123.918 26.788ZM139.194 26.788C139.194 24.9133 139.068 23.3427 138.814 22.076C138.586 20.784 138.105 19.7327 137.37 18.922C136.661 18.1113 135.597 17.706 134.178 17.706C132.76 17.706 131.683 18.1113 130.948 18.922C130.239 19.7327 129.758 20.784 129.504 22.076C129.276 23.3427 129.162 24.9133 129.162 26.788C129.162 28.7133 129.276 30.3347 129.504 31.652C129.732 32.944 130.214 33.9953 130.948 34.806C131.683 35.5913 132.76 35.984 134.178 35.984C135.597 35.984 136.674 35.5913 137.408 34.806C138.143 33.9953 138.624 32.944 138.852 31.652C139.08 30.3347 139.194 28.7133 139.194 26.788ZM168.967 29.79H161.785V37.162H156.769V29.79H149.587V25.154H156.769V17.782H161.785V25.154H168.967V29.79Z" fill="#282938"/>
<path opacity="0.7" d="M7.536 64.848V66.032H2.688V69.792H6.624V70.976H2.688V76H1.232V64.848H7.536ZM10.0465 65.808C9.76917 65.808 9.5345 65.712 9.3425 65.52C9.1505 65.328 9.0545 65.0933 9.0545 64.816C9.0545 64.5387 9.1505 64.304 9.3425 64.112C9.5345 63.92 9.76917 63.824 10.0465 63.824C10.3132 63.824 10.5372 63.92 10.7185 64.112C10.9105 64.304 11.0065 64.5387 11.0065 64.816C11.0065 65.0933 10.9105 65.328 10.7185 65.52C10.5372 65.712 10.3132 65.808 10.0465 65.808ZM10.7505 67.232V76H9.2945V67.232H10.7505ZM16.848 67.088C17.6053 67.088 18.2667 67.2533 18.832 67.584C19.408 67.9147 19.8347 68.3307 20.112 68.832V67.232H21.584V76.192C21.584 76.992 21.4133 77.7013 21.072 78.32C20.7307 78.9493 20.24 79.44 19.6 79.792C18.9707 80.144 18.2347 80.32 17.392 80.32C16.24 80.32 15.28 80.048 14.512 79.504C13.744 78.96 13.2907 78.2187 13.152 77.28H14.592C14.752 77.8133 15.0827 78.24 15.584 78.56C16.0853 78.8907 16.688 79.056 17.392 79.056C18.192 79.056 18.8427 78.8053 19.344 78.304C19.856 77.8027 20.112 77.0987 20.112 76.192V74.352C19.824 74.864 19.3973 75.2907 18.832 75.632C18.2667 75.9733 17.6053 76.144 16.848 76.144C16.0693 76.144 15.36 75.952 14.72 75.568C14.0907 75.184 13.5947 74.6453 13.232 73.952C12.8693 73.2587 12.688 72.4693 12.688 71.584C12.688 70.688 12.8693 69.904 13.232 69.232C13.5947 68.5493 14.0907 68.0213 14.72 67.648C15.36 67.2747 16.0693 67.088 16.848 67.088ZM20.112 71.6C20.112 70.9387 19.9787 70.3627 19.712 69.872C19.4453 69.3813 19.0827 69.008 18.624 68.752C18.176 68.4853 17.68 68.352 17.136 68.352C16.592 68.352 16.096 68.48 15.648 68.736C15.2 68.992 14.8427 69.3653 14.576 69.856C14.3093 70.3467 14.176 70.9227 14.176 71.584C14.176 72.256 14.3093 72.8427 14.576 73.344C14.8427 73.8347 15.2 74.2133 15.648 74.48C16.096 74.736 16.592 74.864 17.136 74.864C17.68 74.864 18.176 74.736 18.624 74.48C19.0827 74.2133 19.4453 73.8347 19.712 73.344C19.9787 72.8427 20.112 72.2613 20.112 71.6ZM34.5885 67.072C35.2712 67.072 35.8792 67.216 36.4125 67.504C36.9458 67.7813 37.3672 68.2027 37.6765 68.768C37.9858 69.3333 38.1405 70.0213 38.1405 70.832V76H36.7005V71.04C36.7005 70.1653 36.4818 69.4987 36.0445 69.04C35.6178 68.5707 35.0365 68.336 34.3005 68.336C33.5432 68.336 32.9405 68.5813 32.4925 69.072C32.0445 69.552 31.8205 70.2507 31.8205 71.168V76H30.3805V71.04C30.3805 70.1653 30.1618 69.4987 29.7245 69.04C29.2978 68.5707 28.7165 68.336 27.9805 68.336C27.2232 68.336 26.6205 68.5813 26.1725 69.072C25.7245 69.552 25.5005 70.2507 25.5005 71.168V76H24.0445V67.232H25.5005V68.496C25.7885 68.0373 26.1725 67.6853 26.6525 67.44C27.1432 67.1947 27.6818 67.072 28.2685 67.072C29.0045 67.072 29.6552 67.2373 30.2205 67.568C30.7858 67.8987 31.2072 68.384 31.4845 69.024C31.7298 68.4053 32.1352 67.9253 32.7005 67.584C33.2658 67.2427 33.8952 67.072 34.5885 67.072ZM39.9849 71.584C39.9849 70.688 40.1662 69.904 40.5289 69.232C40.8915 68.5493 41.3875 68.0213 42.0169 67.648C42.6569 67.2747 43.3662 67.088 44.1449 67.088C44.9129 67.088 45.5795 67.2533 46.1449 67.584C46.7102 67.9147 47.1315 68.3307 47.4089 68.832V67.232H48.8809V76H47.4089V74.368C47.1209 74.88 46.6889 75.3067 46.1129 75.648C45.5475 75.9787 44.8862 76.144 44.1289 76.144C43.3502 76.144 42.6462 75.952 42.0169 75.568C41.3875 75.184 40.8915 74.6453 40.5289 73.952C40.1662 73.2587 39.9849 72.4693 39.9849 71.584ZM47.4089 71.6C47.4089 70.9387 47.2755 70.3627 47.0089 69.872C46.7422 69.3813 46.3795 69.008 45.9209 68.752C45.4729 68.4853 44.9769 68.352 44.4329 68.352C43.8889 68.352 43.3929 68.48 42.9449 68.736C42.4969 68.992 42.1395 69.3653 41.8729 69.856C41.6062 70.3467 41.4729 70.9227 41.4729 71.584C41.4729 72.256 41.6062 72.8427 41.8729 73.344C42.1395 73.8347 42.4969 74.2133 42.9449 74.48C43.3929 74.736 43.8889 74.864 44.4329 74.864C44.9769 74.864 45.4729 74.736 45.9209 74.48C46.3795 74.2133 46.7422 73.8347 47.0089 73.344C47.2755 72.8427 47.4089 72.2613 47.4089 71.6ZM57.031 64.848V71.904C57.031 72.896 57.271 73.632 57.751 74.112C58.2417 74.592 58.919 74.832 59.783 74.832C60.6363 74.832 61.303 74.592 61.783 74.112C62.2737 73.632 62.519 72.896 62.519 71.904V64.848H63.975V71.888C63.975 72.816 63.7883 73.6 63.415 74.24C63.0417 74.8693 62.535 75.3387 61.895 75.648C61.2657 75.9573 60.5563 76.112 59.767 76.112C58.9777 76.112 58.263 75.9573 57.623 75.648C56.9937 75.3387 56.4923 74.8693 56.119 74.24C55.7563 73.6 55.575 72.816 55.575 71.888V64.848H57.031ZM69.5079 76.144C68.8359 76.144 68.2332 76.032 67.6999 75.808C67.1665 75.5733 66.7452 75.2533 66.4359 74.848C66.1265 74.432 65.9559 73.9573 65.9239 73.424H67.4279C67.4705 73.8613 67.6732 74.2187 68.0359 74.496C68.4092 74.7733 68.8945 74.912 69.4919 74.912C70.0465 74.912 70.4839 74.7893 70.8039 74.544C71.1239 74.2987 71.2839 73.9893 71.2839 73.616C71.2839 73.232 71.1132 72.9493 70.7719 72.768C70.4305 72.576 69.9025 72.3893 69.1879 72.208C68.5372 72.0373 68.0039 71.8667 67.5879 71.696C67.1825 71.5147 66.8305 71.2533 66.5319 70.912C66.2439 70.56 66.0999 70.1013 66.0999 69.536C66.0999 69.088 66.2332 68.6773 66.4999 68.304C66.7665 67.9307 67.1452 67.6373 67.6359 67.424C68.1265 67.2 68.6865 67.088 69.3159 67.088C70.2865 67.088 71.0705 67.3333 71.6679 67.824C72.2652 68.3147 72.5852 68.9867 72.6279 69.84H71.1719C71.1399 69.3813 70.9532 69.0133 70.6119 68.736C70.2812 68.4587 69.8332 68.32 69.2679 68.32C68.7452 68.32 68.3292 68.432 68.0199 68.656C67.7105 68.88 67.5559 69.1733 67.5559 69.536C67.5559 69.824 67.6465 70.064 67.8279 70.256C68.0199 70.4373 68.2545 70.5867 68.5319 70.704C68.8199 70.8107 69.2145 70.9333 69.7159 71.072C70.3452 71.2427 70.8572 71.4133 71.2519 71.584C71.6465 71.744 71.9825 71.9893 72.2599 72.32C72.5479 72.6507 72.6972 73.0827 72.7079 73.616C72.7079 74.096 72.5745 74.528 72.3079 74.912C72.0412 75.296 71.6625 75.6 71.1719 75.824C70.6919 76.0373 70.1372 76.144 69.5079 76.144ZM82.7633 71.28C82.7633 71.5573 82.7473 71.8507 82.7153 72.16H75.7073C75.7606 73.024 76.0539 73.7013 76.5873 74.192C77.1313 74.672 77.7873 74.912 78.5553 74.912C79.1846 74.912 79.7073 74.768 80.1233 74.48C80.5499 74.1813 80.8486 73.7867 81.0193 73.296H82.5873C82.3526 74.1387 81.8833 74.8267 81.1793 75.36C80.4753 75.8827 79.6006 76.144 78.5553 76.144C77.7233 76.144 76.9766 75.9573 76.3153 75.584C75.6646 75.2107 75.1526 74.6827 74.7793 74C74.4059 73.3067 74.2193 72.5067 74.2193 71.6C74.2193 70.6933 74.4006 69.8987 74.7633 69.216C75.1259 68.5333 75.6326 68.0107 76.2833 67.648C76.9446 67.2747 77.7019 67.088 78.5553 67.088C79.3873 67.088 80.1233 67.2693 80.7633 67.632C81.4033 67.9947 81.8939 68.496 82.2353 69.136C82.5873 69.7653 82.7633 70.48 82.7633 71.28ZM81.2593 70.976C81.2593 70.4213 81.1366 69.9467 80.8913 69.552C80.6459 69.1467 80.3099 68.8427 79.8833 68.64C79.4673 68.4267 79.0033 68.32 78.4913 68.32C77.7553 68.32 77.1259 68.5547 76.6033 69.024C76.0913 69.4933 75.7979 70.144 75.7233 70.976H81.2593ZM86.1411 68.656C86.3971 68.1547 86.7598 67.7653 87.2291 67.488C87.7091 67.2107 88.2905 67.072 88.9731 67.072V68.576H88.5891C86.9571 68.576 86.1411 69.4613 86.1411 71.232V76H84.6851V67.232H86.1411V68.656ZM93.7579 76.144C93.0859 76.144 92.4832 76.032 91.9499 75.808C91.4165 75.5733 90.9952 75.2533 90.6859 74.848C90.3765 74.432 90.2059 73.9573 90.1739 73.424H91.6779C91.7205 73.8613 91.9232 74.2187 92.2859 74.496C92.6592 74.7733 93.1445 74.912 93.7419 74.912C94.2965 74.912 94.7339 74.7893 95.0539 74.544C95.3739 74.2987 95.5339 73.9893 95.5339 73.616C95.5339 73.232 95.3632 72.9493 95.0219 72.768C94.6805 72.576 94.1525 72.3893 93.4379 72.208C92.7872 72.0373 92.2539 71.8667 91.8379 71.696C91.4325 71.5147 91.0805 71.2533 90.7819 70.912C90.4939 70.56 90.3499 70.1013 90.3499 69.536C90.3499 69.088 90.4832 68.6773 90.7499 68.304C91.0165 67.9307 91.3952 67.6373 91.8859 67.424C92.3765 67.2 92.9365 67.088 93.5659 67.088C94.5365 67.088 95.3205 67.3333 95.9179 67.824C96.5152 68.3147 96.8352 68.9867 96.8779 69.84H95.4219C95.3899 69.3813 95.2032 69.0133 94.8619 68.736C94.5312 68.4587 94.0832 68.32 93.5179 68.32C92.9952 68.32 92.5792 68.432 92.2699 68.656C91.9605 68.88 91.8059 69.1733 91.8059 69.536C91.8059 69.824 91.8965 70.064 92.0779 70.256C92.2699 70.4373 92.5045 70.5867 92.7819 70.704C93.0699 70.8107 93.4645 70.9333 93.9659 71.072C94.5952 71.2427 95.1072 71.4133 95.5019 71.584C95.8965 71.744 96.2325 71.9893 96.5099 72.32C96.7979 72.6507 96.9472 73.0827 96.9579 73.616C96.9579 74.096 96.8245 74.528 96.5579 74.912C96.2912 75.296 95.9125 75.6 95.4219 75.824C94.9419 76.0373 94.3872 76.144 93.7579 76.144Z" fill="#282938"/>
</svg>
